<svg width="54" height="54" viewBox="0 0 54 54" fill="none" xmlns="http://www.w3.org/2000/svg">
<path d="M30.6643 22.9686L19.7357 11.4504L23.4 7.65621L30.6643 15.3124L45.2571 0L48.8571 3.79423L30.6643 22.9686ZM33.4286 54L15.4286 48.7152V22.8331H20.4429L36.3857 29.0665C37.8 29.6085 38.9469 30.5571 39.8263 31.9122C40.704 33.2673 41.1429 34.7578 41.1429 36.3839H36C34.2 36.3839 32.7857 36.3162 31.7571 36.1807C30.7286 36.0452 29.8286 35.8419 29.0571 35.5709L23.9143 33.8093L23.1429 36.3839L27.1929 37.9423C28.3929 38.4391 29.4857 38.7553 30.4714 38.8908C31.4571 39.0263 32.6143 39.0941 33.9429 39.0941H46.2857C49.1143 39.0941 51.1071 39.5801 52.2643 40.5522C53.4214 41.5224 54 42.8432 54 44.5144V47.2246L33.4286 54ZM0 52.6449V22.8331H10.2857V52.6449H0Z" fill="#00AC4F"/>
</svg>
