<svg width="44" height="44" viewBox="0 0 44 44" fill="none" xmlns="http://www.w3.org/2000/svg">
<g clip-path="url(#clip0_787_562)">
<path d="M32.0129 0.0143864C20.2275 0.575398 22.5845 21.2277 22.5845 21.2277C22.5845 21.2277 32.6021 22.4078 39.6734 18.8716C46.7446 15.3353 43.7983 -0.546626 32.0129 0.0143864Z" fill="#40322F"/>
<path d="M43.7946 32.013C43.2336 20.2276 22.5812 22.5846 22.5812 22.5846C22.5812 22.5846 21.4011 32.6023 24.9374 39.6735C28.4736 46.7447 44.3556 43.7984 43.7946 32.013Z" fill="#00AC4F"/>
<path d="M11.6268 43.6254C23.4122 43.0644 21.0552 22.4121 21.0552 22.4121C21.0552 22.4121 11.0375 21.232 3.96628 24.7682C-3.10495 28.3044 -0.158615 44.1864 11.6268 43.6254Z" fill="#40322F"/>
<path d="M0.0143864 11.6268C0.575398 23.4122 21.2277 21.0552 21.2277 21.0552C21.2277 21.0552 22.4078 11.0375 18.8716 3.96628C15.3353 -3.10495 -0.546626 -0.158615 0.0143864 11.6268Z" fill="#00AC4F"/>
</g>
<defs>
<clipPath id="clip0_787_562">
<rect width="44" height="44" fill="white"/>
</clipPath>
</defs>
</svg>
